<?xml version="1.0" encoding="UTF-8" standalone="no"?>
<!-- Created with Inkscape (http://www.inkscape.org/) -->

<svg
   version="1.1"
   id="svg804"
   xml:space="preserve"
   width="682.66669"
   height="682.66669"
   viewBox="0 0 682.66669 682.66669"
   xmlns="http://www.w3.org/2000/svg"
   xmlns:svg="http://www.w3.org/2000/svg"><defs
     id="defs808"><clipPath
       clipPathUnits="userSpaceOnUse"
       id="clipPath818"><path
         d="M 0,512 H 512 V 0 H 0 Z"
         id="path816" /></clipPath></defs><g
     id="g810"
     transform="matrix(1.3333333,0,0,-1.3333333,0,682.66667)"><g
       id="g812"><g
         id="g814"
         clip-path="url(#clipPath818)"><g
           id="g820"
           transform="translate(384.5332,440.7666)"><path
             d="M 0,0 C 0,0 0,0.001 0.008,0.002 26.55,8.851 47.381,29.681 56.233,56.226 v 0.007 -0.007 C 65.086,29.681 85.917,8.851 112.459,0.002 112.467,0.001 112.467,0 112.467,0 c 0,0 0,0 -0.008,-0.002 C 85.917,-8.851 65.086,-29.681 56.233,-56.226 v -0.007 0.007 C 47.381,-29.681 26.55,-8.851 0.008,-0.002 0,0 0,0 0,0 Z"
             style="fill:none;stroke:#000000;stroke-width:30;stroke-linecap:round;stroke-linejoin:round;stroke-miterlimit:10;stroke-dasharray:none;stroke-opacity:1"
             id="path822" /></g><g
           id="g824"
           transform="translate(304.2002,352.3999)"><path
             d="M 0,0 H 48.2"
             style="fill:none;stroke:#000000;stroke-width:30;stroke-linecap:round;stroke-linejoin:round;stroke-miterlimit:10;stroke-dasharray:none;stroke-opacity:1"
             id="path826" /></g><g
           id="g828"
           transform="translate(247.9668,472.8999)"><path
             d="M 0,0 H 48.2"
             style="fill:none;stroke:#000000;stroke-width:30;stroke-linecap:round;stroke-linejoin:round;stroke-miterlimit:10;stroke-dasharray:none;stroke-opacity:1"
             id="path830" /></g><g
           id="g832"
           transform="translate(328.2998,376.5)"><path
             d="M 0,0 V -48.2"
             style="fill:none;stroke:#000000;stroke-width:30;stroke-linecap:round;stroke-linejoin:round;stroke-miterlimit:10;stroke-dasharray:none;stroke-opacity:1"
             id="path834" /></g><g
           id="g836"
           transform="translate(272.0669,497)"><path
             d="M 0,0 V -48.2"
             style="fill:none;stroke:#000000;stroke-width:30;stroke-linecap:round;stroke-linejoin:round;stroke-miterlimit:10;stroke-dasharray:none;stroke-opacity:1"
             id="path838" /></g><path
           d="m 15,207.8 h 482 v 64.267 H 15 Z"
           style="fill:none;stroke:#000000;stroke-width:30;stroke-linecap:round;stroke-linejoin:round;stroke-miterlimit:10;stroke-dasharray:none;stroke-opacity:1"
           id="path840" /><g
           id="g842"
           transform="translate(497,207.7998)"><path
             d="m 0,0 h -482 v -64.267 c 0,-35.493 28.775,-64.266 64.267,-64.266 H -64.267 C -28.775,-128.533 0,-99.76 0,-64.267 Z"
             style="fill:none;stroke:#000000;stroke-width:30;stroke-linecap:round;stroke-linejoin:round;stroke-miterlimit:10;stroke-dasharray:none;stroke-opacity:1"
             id="path844" /></g><g
           id="g846"
           transform="translate(79.2666,79.2666)"><path
             d="M 0,0 V 0 C 17.746,0 32.133,-14.387 32.133,-32.133 32.133,-49.88 17.746,-64.267 0,-64.267"
             style="fill:none;stroke:#000000;stroke-width:30;stroke-linecap:round;stroke-linejoin:round;stroke-miterlimit:10;stroke-dasharray:none;stroke-opacity:1"
             id="path848" /></g><g
           id="g850"
           transform="translate(432.7334,79.2666)"><path
             d="m 0,0 v 0 c -17.746,0 -32.133,-14.387 -32.133,-32.133 0,-17.747 14.387,-32.134 32.133,-32.134"
             style="fill:none;stroke:#000000;stroke-width:30;stroke-linecap:round;stroke-linejoin:round;stroke-miterlimit:10;stroke-dasharray:none;stroke-opacity:1"
             id="path852" /></g><g
           id="g854"
           transform="translate(15,272.0669)"><path
             d="m 0,0 v 168.7 c 0,31.057 25.176,56.233 56.233,56.233 14.918,0 29.218,-5.925 39.766,-16.471 10.547,-10.545 16.468,-24.848 16.468,-39.762 v -8.033"
             style="fill:none;stroke:#000000;stroke-width:30;stroke-linecap:round;stroke-linejoin:round;stroke-miterlimit:10;stroke-dasharray:none;stroke-opacity:1"
             id="path856" /></g><g
           id="g858"
           transform="translate(175.6665,384.5332)"><path
             d="M 0,0 C 0,12.784 -5.077,25.043 -14.115,34.083 -23.16,43.122 -35.419,48.2 -48.2,48.2 -60.981,48.2 -73.24,43.122 -82.285,34.083 -91.323,25.043 -96.4,12.784 -96.4,0 V -16.066 H 0 Z"
             style="fill:none;stroke:#000000;stroke-width:30;stroke-linecap:round;stroke-linejoin:round;stroke-miterlimit:10;stroke-dasharray:none;stroke-opacity:1"
             id="path860" /></g></g></g></g></svg>
