<svg id="Layer_3" enable-background="new 0 0 512 512" height="512" viewBox="0 0 512 512" width="512" xmlns="http://www.w3.org/2000/svg"><g><path d="m89.64 493.45c0 10.24 8.31 18.55 18.55 18.55h43.93 207.77 43.93c10.24 0 18.55-8.31 18.55-18.55s-8.31-18.55-18.55-18.55h-12.47c23.3-56.17 8.53-122.95-40-163.47l-66.41-55.43 66.34-55.43c21.74-18.18 36.66-41.55 44.52-67.01 9.43-31.37 8.34-65.46-4.53-96.46h12.47c10.24 0 18.55-8.31 18.55-18.55s-8.31-18.55-18.55-18.55h-43.85-207.77-43.93c-10.24 0-18.55 8.31-18.55 18.55s8.31 18.55 18.55 18.55h12.47c-14.02 33.76-14.25 71.31-1.56 104.77 8.12 22.45 22.29 42.56 41.55 58.69l66.41 55.44-66.34 55.43c-48.53 40.51-63.22 107.37-40 163.47h-12.47c-10.3 0-18.61 8.31-18.61 18.55zm76.35-18.55c14.84-30.2 64.56-59.07 90.01-71.16 25.45 12.17 75.17 40.96 90.01 71.16zm183.95-437.8c15.36 25.3 18.77 55.28 11.28 82.51-6.53 6.83-50.16 13.21-105.15-11.13-40.44-17.96-82.66-7.05-107.3 2.75-4.75-24.93-.59-51.35 13.21-74.13zm-187.88 108.71c18.4-7.42 50.24-16.18 79.03-3.49 30.35 13.43 62.92 20.55 90.38 20.55 2 0 3.86-.15 5.71-.22-3.04 3.26-6.16 6.46-9.65 9.35l-71.53 59.81-71.53-59.73c-9.13-7.57-16.55-16.55-22.41-26.27zm22.41 194.11 71.53-59.73 71.53 59.73c28.86 24.04 41.48 60.7 36.43 95.72-33.54-39.62-92.16-65.74-100.62-69.31-4.67-2-9.94-2-14.62 0-8.46 3.64-67.08 29.68-100.62 69.31-5.11-35.02 7.58-71.67 36.37-95.72z"/><path d="m256 354.76c10.24 0 18.55-8.31 18.55-18.55v-7.27c0-10.24-8.31-18.55-18.55-18.55s-18.55 8.31-18.55 18.55v7.27c0 10.24 8.31 18.55 18.55 18.55z"/></g></svg>