<svg id="Capa_1" enable-background="new 0 0 513 513" height="512" viewBox="0 0 513 513" width="512" xmlns="http://www.w3.org/2000/svg"><g><path d="m232.705 434.57c-1.283-6.151-6.273-10.959-12.505-11.905-6.19-.939-12.494 2.255-15.425 7.775-2.946 5.548-2.102 12.457 2.104 17.131 4.183 4.649 11.094 6.186 16.856 3.779 6.578-2.747 10.275-9.81 8.97-16.78z"/><path d="m172.705 434.57c-1.283-6.152-6.272-10.959-12.505-11.905-6.19-.94-12.494 2.255-15.425 7.775-2.944 5.545-2.099 12.46 2.104 17.131 4.183 4.649 11.094 6.186 16.856 3.779 6.579-2.747 10.275-9.809 8.97-16.78z"/><path d="m112.705 434.57c-1.283-6.151-6.273-10.959-12.505-11.905-6.19-.939-12.494 2.255-15.425 7.775-2.946 5.548-2.102 12.456 2.104 17.131 4.183 4.649 11.093 6.186 16.856 3.779 6.578-2.747 10.275-9.81 8.97-16.78z"/><path d="m232.705 374.57c-1.283-6.151-6.273-10.959-12.505-11.905-6.19-.939-12.494 2.255-15.425 7.775-2.946 5.548-2.102 12.456 2.104 17.131 4.183 4.649 11.094 6.186 16.856 3.779 6.579-2.747 10.275-9.81 8.97-16.78z"/><path d="m172.705 374.57c-1.283-6.151-6.273-10.959-12.505-11.905-6.189-.939-12.494 2.255-15.425 7.775-2.944 5.544-2.099 12.46 2.104 17.131 4.183 4.649 11.094 6.186 16.856 3.779 6.578-2.747 10.275-9.81 8.97-16.78z"/><path d="m112.705 374.57c-1.276-6.12-6.274-11.003-12.505-11.904-6.205-.897-12.478 2.225-15.425 7.774-2.946 5.548-2.102 12.456 2.104 17.131 4.183 4.649 11.093 6.186 16.856 3.779 6.578-2.747 10.275-9.81 8.97-16.78z"/><path d="m232.705 314.57c-1.276-6.12-6.274-11.003-12.505-11.904-6.205-.897-12.478 2.225-15.425 7.774-2.946 5.548-2.102 12.456 2.104 17.131 4.183 4.649 11.094 6.186 16.856 3.779 6.579-2.747 10.275-9.81 8.97-16.78z"/><path d="m172.705 314.57c-1.283-6.151-6.273-10.959-12.505-11.905-6.189-.939-12.494 2.255-15.425 7.775-2.944 5.545-2.099 12.46 2.104 17.131 4.182 4.648 11.095 6.185 16.856 3.779 6.579-2.747 10.275-9.81 8.97-16.78z"/><path d="m112.705 314.57c-1.276-6.12-6.274-11.003-12.505-11.904-6.205-.897-12.478 2.225-15.425 7.774-2.946 5.548-2.102 12.456 2.104 17.131 4.183 4.649 11.093 6.186 16.856 3.779 6.578-2.747 10.275-9.81 8.97-16.78z"/><path d="m232.705 254.57c-1.283-6.151-6.273-10.959-12.505-11.905-6.19-.939-12.494 2.255-15.425 7.775-2.946 5.548-2.102 12.456 2.104 17.131 4.182 4.648 11.094 6.186 16.856 3.779 6.579-2.747 10.275-9.81 8.97-16.78z"/><path d="m172.705 254.57c-1.276-6.12-6.274-11.003-12.505-11.904-6.205-.897-12.479 2.225-15.425 7.774-2.944 5.545-2.099 12.46 2.104 17.131 4.183 4.649 11.094 6.186 16.856 3.779 6.579-2.747 10.275-9.81 8.97-16.78z"/><path d="m112.705 254.57c-1.283-6.151-6.273-10.959-12.505-11.905-6.19-.939-12.494 2.255-15.425 7.775-2.946 5.548-2.102 12.456 2.104 17.131 4.183 4.649 11.093 6.186 16.856 3.779 6.578-2.747 10.275-9.81 8.97-16.78z"/><path d="m232.705 194.57c-1.283-6.151-6.273-10.959-12.505-11.905-6.19-.939-12.494 2.255-15.425 7.775-2.946 5.548-2.102 12.456 2.104 17.131 4.183 4.649 11.094 6.186 16.856 3.779 6.579-2.747 10.275-9.81 8.97-16.78z"/><path d="m172.705 194.57c-1.283-6.152-6.273-10.959-12.505-11.905-6.19-.939-12.494 2.255-15.425 7.775-2.944 5.545-2.099 12.46 2.104 17.131 4.183 4.649 11.094 6.186 16.856 3.779 6.579-2.748 10.275-9.81 8.97-16.78z"/><path d="m112.705 194.57c-1.283-6.151-6.273-10.959-12.505-11.905-6.19-.939-12.494 2.255-15.425 7.775-2.946 5.548-2.102 12.456 2.104 17.131 4.182 4.648 11.094 6.186 16.856 3.779 6.578-2.747 10.275-9.81 8.97-16.78z"/><path d="m498 .5h-483c-8.284 0-15 6.716-15 15v482c0 8.284 6.716 15 15 15h483c8.284 0 15-6.716 15-15v-482c0-8.284-6.716-15-15-15zm-468 30h112.995v30.211h-11.045c-27.512 0-50.762 19.697-55.282 46.835l-4.286 25.734c-.725 4.349.501 8.797 3.351 12.161s7.036 5.304 11.445 5.304h141.456c4.409 0 8.595-1.94 11.445-5.304s4.076-7.812 3.351-12.161l-4.286-25.734c-4.52-27.138-27.77-46.835-55.282-46.835h-10.866v-30.211h174.108v452h-317.104zm153.861 60.211c12.785 0 23.589 9.153 25.69 21.765l1.377 8.269h-106.045l1.377-8.269c2.101-12.611 12.905-21.765 25.69-21.765zm299.139 391.789h-105.897v-452h105.897z"/></g></svg>