<?xml version="1.0" encoding="UTF-8" standalone="no"?>
<!-- Created with Inkscape (http://www.inkscape.org/) -->

<svg
   version="1.1"
   id="svg2490"
   xml:space="preserve"
   width="682.66669"
   height="682.66669"
   viewBox="0 0 682.66669 682.66669"
   xmlns="http://www.w3.org/2000/svg"
   xmlns:svg="http://www.w3.org/2000/svg"><defs
     id="defs2494"><clipPath
       clipPathUnits="userSpaceOnUse"
       id="clipPath2504"><path
         d="M 0,512 H 512 V 0 H 0 Z"
         id="path2502" /></clipPath></defs><g
     id="g2496"
     transform="matrix(1.3333333,0,0,-1.3333333,0,682.66667)"><g
       id="g2498"><g
         id="g2500"
         clip-path="url(#clipPath2504)"><g
           id="g2506"
           transform="translate(406,376)"><path
             d="M 0,0 C 0,33.137 26.863,60 60,60"
             style="fill:none;stroke:#000000;stroke-width:30;stroke-linecap:round;stroke-linejoin:round;stroke-miterlimit:10;stroke-dasharray:none;stroke-opacity:1"
             id="path2508" /></g><g
           id="g2510"
           transform="translate(466,436)"><path
             d="M 0,0 C -33.137,0 -60,27.863 -60,61"
             style="fill:none;stroke:#000000;stroke-width:30;stroke-linecap:round;stroke-linejoin:round;stroke-miterlimit:10;stroke-dasharray:none;stroke-opacity:1"
             id="path2512" /></g><g
           id="g2514"
           transform="translate(346,436)"><path
             d="M 0,0 C 33.137,0 60,-26.863 60,-60"
             style="fill:none;stroke:#000000;stroke-width:30;stroke-linecap:round;stroke-linejoin:round;stroke-miterlimit:10;stroke-dasharray:none;stroke-opacity:1"
             id="path2516" /></g><g
           id="g2518"
           transform="translate(406,497)"><path
             d="M 0,0 C 0,-33.137 -26.863,-61 -60,-61"
             style="fill:none;stroke:#000000;stroke-width:30;stroke-linecap:round;stroke-linejoin:round;stroke-miterlimit:10;stroke-dasharray:none;stroke-opacity:1"
             id="path2520" /></g><g
           id="g2522"
           transform="translate(286,226)"><path
             d="M 0,0 C 0,49.706 40.294,90 90,90"
             style="fill:none;stroke:#000000;stroke-width:30;stroke-linecap:round;stroke-linejoin:round;stroke-miterlimit:10;stroke-dasharray:none;stroke-opacity:1"
             id="path2524" /></g><g
           id="g2526"
           transform="translate(376,316)"><path
             d="M 0,0 C -49.706,0 -90,40.294 -90,90"
             style="fill:none;stroke:#000000;stroke-width:30;stroke-linecap:round;stroke-linejoin:round;stroke-miterlimit:10;stroke-dasharray:none;stroke-opacity:1"
             id="path2528" /></g><g
           id="g2530"
           transform="translate(196,316)"><path
             d="M 0,0 C 49.706,0 90,-40.294 90,-90"
             style="fill:none;stroke:#000000;stroke-width:30;stroke-linecap:round;stroke-linejoin:round;stroke-miterlimit:10;stroke-dasharray:none;stroke-opacity:1"
             id="path2532" /></g><g
           id="g2534"
           transform="translate(286,406)"><path
             d="M 0,0 C 0,-49.706 -40.294,-90 -90,-90"
             style="fill:none;stroke:#000000;stroke-width:30;stroke-linecap:round;stroke-linejoin:round;stroke-miterlimit:10;stroke-dasharray:none;stroke-opacity:1"
             id="path2536" /></g><g
           id="g2538"
           transform="translate(331,136)"><path
             d="m 0,0 c -107.695,0 -195,87.305 -195,195 0,67.875 34.72,131.074 87.327,166 C -224.724,345.022 -316,241.436 -316,120 c 0,-132.548 108.452,-241 241,-241 121.436,0 225.022,91.276 241,208.327 C 131.074,34.72 67.875,0 0,0 Z"
             style="fill:none;stroke:#000000;stroke-width:30;stroke-linecap:round;stroke-linejoin:round;stroke-miterlimit:10;stroke-dasharray:none;stroke-opacity:1"
             id="path2540" /></g></g></g></g></svg>
