<svg version="1.1" id="Capa_1" xmlns="http://www.w3.org/2000/svg" xmlns:xlink="http://www.w3.org/1999/xlink" x="0px" y="0px" viewBox="0 0 512 512" style="enable-background:new 0 0 512 512;" xml:space="preserve">
<g>
	<g>
		<g>
			<path style="fill:none;stroke:#000000;stroke-width:30;stroke-linecap:round;stroke-linejoin:round;stroke-miterlimit:10;" d="&#10;&#9;&#9;&#9;&#9;M415.55,463.805l-153.097,32.433c-18.79,3.98-37.248-8.025-41.229-26.814l0,0c-3.98-18.79,8.025-37.248,26.814-41.229&#10;&#9;&#9;&#9;&#9;l153.097-32.433c18.79-3.98,37.248,8.025,41.229,26.814l0,0C446.345,441.366,434.339,459.825,415.55,463.805z"/>
		</g>
		<g>
			<path style="fill:none;stroke:#000000;stroke-width:30;stroke-linecap:round;stroke-linejoin:round;stroke-miterlimit:10;" d="&#10;&#9;&#9;&#9;&#9;M256,426.508l-145.134-30.742c-18.791-3.988-37.246,8.022-41.233,26.813c-0.51,2.423-0.765,4.846-0.765,7.234&#10;&#9;&#9;&#9;&#9;c0,16.078,11.221,30.522,27.578,33.988l147.024,31.148h0.012"/>
		</g>
		
			<circle style="fill:none;stroke:#000000;stroke-width:30;stroke-linecap:round;stroke-linejoin:round;stroke-miterlimit:10;" cx="256" cy="153.039" r="56.042"/>
		<path style="fill:none;stroke:#000000;stroke-width:30;stroke-linecap:round;stroke-linejoin:round;stroke-miterlimit:10;" d="&#10;&#9;&#9;&#9;M193.26,284l-6.84,92.71c-0.78,10.49-6.99,19.81-16.38,24.56c-4.27,2.16-8.91,3.23-13.54,3.23c-5.55,0-11.08-1.54-15.94-4.59&#10;&#9;&#9;&#9;l-90.5-54.5c-14.04-8.8-18.28-27.32-9.47-41.35c8.8-14.04,27.32-18.28,41.35-9.47l48.31,28.03l4.105-49.638&#10;&#9;&#9;&#9;c2.953-35.712,32.799-63.192,68.633-63.192h106.025c35.834,0,65.68,27.48,68.633,63.192l4.105,49.638l48.31-28.03&#10;&#9;&#9;&#9;c14.03-8.81,32.55-4.57,41.35,9.47c8.81,14.03,4.57,32.55-9.47,41.35l-90.5,54.5c-4.86,3.05-10.39,4.59-15.94,4.59&#10;&#9;&#9;&#9;c-4.63,0-9.27-1.07-13.54-3.23c-9.39-4.75-15.6-14.07-16.38-24.56L318.74,284"/>
	</g>
	<g>
		
			<line style="fill:none;stroke:#000000;stroke-width:30;stroke-linecap:round;stroke-linejoin:round;stroke-miterlimit:10;" x1="414" y1="15" x2="414" y2="81"/>
		
			<line style="fill:none;stroke:#000000;stroke-width:30;stroke-linecap:round;stroke-linejoin:round;stroke-miterlimit:10;" x1="437" y1="48" x2="391" y2="48"/>
	</g>
	<g>
		
			<line style="fill:none;stroke:#000000;stroke-width:30;stroke-linecap:round;stroke-linejoin:round;stroke-miterlimit:10;" x1="74.308" y1="87.039" x2="74.308" y2="153.039"/>
		
			<line style="fill:none;stroke:#000000;stroke-width:30;stroke-linecap:round;stroke-linejoin:round;stroke-miterlimit:10;" x1="97.309" y1="120.039" x2="51.309" y2="120.039"/>
	</g>
	
		<line style="fill:none;stroke:#000000;stroke-width:30;stroke-linecap:round;stroke-linejoin:round;stroke-miterlimit:10;" x1="449.668" y1="174.15" x2="449.668" y2="174.15"/>
	
		<line style="fill:none;stroke:#000000;stroke-width:30;stroke-linecap:round;stroke-linejoin:round;stroke-miterlimit:10;" x1="305.956" y1="15" x2="305.956" y2="15"/>
	
		<line style="fill:none;stroke:#000000;stroke-width:30;stroke-linecap:round;stroke-linejoin:round;stroke-miterlimit:10;" x1="148.862" y1="48" x2="148.862" y2="48"/>
</g>
<g>
</g>
<g>
</g>
<g>
</g>
<g>
</g>
<g>
</g>
<g>
</g>
<g>
</g>
<g>
</g>
<g>
</g>
<g>
</g>
<g>
</g>
<g>
</g>
<g>
</g>
<g>
</g>
<g>
</g>
</svg>