<svg width="303" height="329" viewBox="0 0 303 329" fill="none" xmlns="http://www.w3.org/2000/svg">
<path d="M271.781 131.686C281.956 167.79 277.371 203.049 258.956 235.788C239.701 270.273 207.551 295.713 169.566 306.528C135 316.103 96.0971 311.923 64.8776 294.044C34.8846 276.979 12.9756 248.613 4.04306 215.281C0.910064 203.535 -0.899918 188.15 0.455082 176.033C3.80808 203.673 8.76007 220.359 26.1666 242.546C82.9251 314.893 189.231 299.453 240.886 230.378C260.371 204.325 274.986 168.505 271.291 135.763C271.166 134.722 270.971 133.69 270.701 132.677L271.781 131.686Z" fill="#EDCE99"/>
<path d="M205.951 33.374C213.986 35.449 223.396 45.001 227.146 52.2345C231.056 59.7695 232.321 70.693 231.206 79.009C223.031 139.93 146.766 155.404 127.761 210.005C123.088 223.717 124.596 241.023 130.412 254.134C132.365 258.539 135.452 262.907 137.747 267.261C136.603 267.385 136.517 266.97 135.264 266.11C107.714 245.277 99.7506 212.272 115.648 180.63C139.571 133.017 212.751 124.015 218.836 66.3715C220.156 53.8815 214.086 42.1755 205.951 33.374Z" fill="#EDCE99"/>
<path d="M153.181 0C168.316 2.995 178.546 23.4215 177.441 37.906C174.206 80.3485 132.262 105.149 107.559 135.218C95.3981 150.019 84.7286 165.174 81.4246 184.383C78.3136 201.749 82.5801 222.487 91.9211 237.496C92.9521 239.152 92.9886 238.731 93.7936 240.735C92.4451 240.68 91.5946 239.542 90.2671 238.464C86.8531 235.323 83.1681 231.838 80.1901 228.302C67.3436 212.979 61.1216 193.174 62.8966 173.257C66.6096 131.085 100.329 107.645 130.21 83.1715C156.421 61.7055 179.461 31.0565 153.181 0Z" fill="#EDCE99"/>
<path d="M240.336 67.3545C258.551 77.904 275.906 98.5395 285.931 117.11C308.176 158.335 307.581 213.371 283.726 253.845C263.161 288.744 228.581 313.488 189.611 323.778C154.871 332.678 127.603 329.838 94.4621 317.423L95.2891 316.788C118.359 324.123 138.061 327.458 162.566 324.423C262.676 312.008 320.326 200.466 273.266 111.29C267.241 99.6565 259.806 88.812 251.121 79.0025C247.776 75.191 243.331 70.9705 240.336 67.3545Z" fill="#EDCE99"/>
<path d="M117.201 55.19C118.162 55.1395 119.93 54.8485 120.548 55.25C118.227 56.022 115.954 56.7005 113.579 57.29C52.2056 72.5115 6.65555 138.86 28.9011 201.257C37.6356 225.755 55.7616 247.202 77.8921 260.787C84.7221 264.98 91.9606 268.242 99.2116 271.65C96.4481 271.137 93.3316 270.307 90.5626 269.636C30.4081 252.609 -4.23444 193.077 17.7681 133.18C32.7526 92.388 74.3796 60.9855 117.201 55.19Z" fill="#EDCE99"/>
<path d="M72.3961 94.526C72.4831 94.6925 72.5701 94.8585 72.6571 95.025C69.9136 97.9615 66.9976 101.245 64.6566 104.449C43.6546 133.197 35.3051 173.795 48.5951 207.469C51.6791 215.283 56.5481 223.279 60.9216 230.561C59.8066 229.431 58.5221 227.9 57.4421 226.689C22.3356 183.341 30.4931 129.852 72.3961 94.526Z" fill="#EDCE99"/>
</svg>
