<svg id="Layer_1" height="512" viewBox="0 0 64 64" width="512" xmlns="http://www.w3.org/2000/svg"><g><path d="m45.668 59.873h-27.355c-5.541 0-10.05-4.508-10.05-10.05v-15.405h-1.572c-1.958 0-3.671-1.186-4.365-3.021-.723-1.783-.219-3.877 1.271-5.167l21.684-19.506c1.844-1.673 4.229-2.597 6.713-2.597 2.48 0 4.871.922 6.733 2.596l21.715 19.531c1.447 1.253 1.945 3.281 1.242 5.143-.696 1.836-2.41 3.021-4.366 3.021h-1.571v15.405c0 5.542-4.521 10.05-10.079 10.05zm-13.674-51.746c-1.487 0-2.919.556-4.031 1.564l-21.719 19.537c-.233.203-.295.459-.193.711.122.32.35.479.641.479h3.572c1.104 0 2 .896 2 2v17.405c0 3.336 2.714 6.05 6.05 6.05h27.354c3.352 0 6.079-2.714 6.079-6.05v-17.405c0-1.104.896-2 2-2h3.571c.292 0 .52-.159.625-.438.039-.104.147-.472-.148-.728l-21.742-19.555c-1.126-1.012-2.568-1.57-4.059-1.57z"/></g></svg>