<?xml version="1.0" encoding="iso-8859-1"?>
<!-- Generator: Adobe Illustrator 19.0.0, SVG Export Plug-In . SVG Version: 6.00 Build 0)  -->
<svg version="1.1" id="Capa_1" xmlns="http://www.w3.org/2000/svg" xmlns:xlink="http://www.w3.org/1999/xlink" x="0px" y="0px"
	 viewBox="0 0 512 512" style="enable-background:new 0 0 512 512;" xml:space="preserve">
<g>
	<g>
		<path d="M296.879,63.779C299.517,58.059,301,51.701,301,45c0-24.813-20.187-45-45-45s-45,20.187-45,45
			c0,6.701,1.483,13.059,4.121,18.779C112.696,82.874,31,174.589,31,287c0,124.065,100.935,225,225,225s225-100.935,225-225
			C481,174.559,399.274,82.869,296.879,63.779z M256,30c8.271,0,15,6.729,15,15s-6.729,15-15,15s-15-6.729-15-15S247.729,30,256,30z
			 M256,482.2c-107.523,0-195-87.677-195-195.2c0-108.626,87.477-197.2,195-197.2S451.2,178.374,451.2,287
			C451.2,394.523,363.523,482.2,256,482.2z"/>
	</g>
</g>
<g>
	<g>
		<path d="M256,120c-91.444,0-165,76.255-165,167c0,90.981,74.019,165,165,165s165-74.019,165-165C421,196.159,347.328,120,256,120z
			 M256,422.2c-74.439,0-135-60.761-135-135.2c0-75.542,60.561-137.2,135-137.2S391.2,211.458,391.2,287
			C391.2,361.439,330.439,422.2,256,422.2z"/>
	</g>
</g>
<g>
	<g>
		<path d="M333.056,343.932l-42.427-84.853c-1.408-2.817-3.668-5.12-6.458-6.581l-84.853-44.427
			c-12.787-6.692-26.779,6.889-20.436,19.873l42.426,86.853c1.445,2.959,3.824,5.36,6.77,6.833l84.854,42.427
			C325.761,370.471,339.493,356.805,333.056,343.932z M246.035,297.067l-20.131-41.213l40.059,20.974l20.136,40.27L246.035,297.067z
			"/>
	</g>
</g>
<g>
</g>
<g>
</g>
<g>
</g>
<g>
</g>
<g>
</g>
<g>
</g>
<g>
</g>
<g>
</g>
<g>
</g>
<g>
</g>
<g>
</g>
<g>
</g>
<g>
</g>
<g>
</g>
<g>
</g>
</svg>
