<?xml version="1.0" encoding="iso-8859-1"?>
<!-- Generator: Adobe Illustrator 19.0.0, SVG Export Plug-In . SVG Version: 6.00 Build 0)  -->
<svg version="1.1" id="Capa_1" xmlns="http://www.w3.org/2000/svg" xmlns:xlink="http://www.w3.org/1999/xlink" x="0px" y="0px"
	 viewBox="0 0 512 512" style="enable-background:new 0 0 512 512;" xml:space="preserve">
<g>
	<g>
		<polygon points="266.034,275.966 225.912,255.912 245.966,296.034 286.088,316.088 		"/>
	</g>
</g>
<g>
	<g>
		<path d="M256,151c-74.443,0-135,60.557-135,135s60.557,135,135,135s135-60.557,135-135S330.443,151,256,151z M330.238,360.238
			c-4.569,4.569-11.535,5.702-17.314,2.813l-84.844-42.422c-2.9-1.45-5.259-3.809-6.709-6.709l-42.422-84.844
			c-2.886-5.771-1.758-12.744,2.813-17.314c4.57-4.614,11.543-5.713,17.314-2.813l84.844,42.422c2.9,1.45,5.259,3.809,6.709,6.709
			l42.422,84.844C335.937,348.695,334.809,355.668,330.238,360.238z"/>
	</g>
</g>
<g>
	<g>
		<path d="M296.71,63.878C299.394,58.118,301,51.764,301,45c0-24.814-20.186-45-45-45c-24.814,0-45,20.186-45,45
			c0,6.764,1.606,13.118,4.29,18.878C110.612,83.112,31,175.844,31,286c0,124.072,100.928,226,225,226s225-101.928,225-226
			C481,175.844,401.388,83.112,296.71,63.878z M256,30c8.276,0,15,6.724,15,15s-6.724,15-15,15s-15-6.724-15-15S247.724,30,256,30z
			 M256,451c-90.981,0-165-74.019-165-165s74.019-165,165-165s165,74.019,165,165S346.981,451,256,451z"/>
	</g>
</g>
<g>
</g>
<g>
</g>
<g>
</g>
<g>
</g>
<g>
</g>
<g>
</g>
<g>
</g>
<g>
</g>
<g>
</g>
<g>
</g>
<g>
</g>
<g>
</g>
<g>
</g>
<g>
</g>
<g>
</g>
</svg>
