<svg id="Layer_1" viewBox="0 0 512 512" xmlns="http://www.w3.org/2000/svg" data-name="Layer 1"><path d="m314.273 58.664c-36.286 42.708-20.283 63.859-14.514 69.324a29.591 29.591 0 0 0 39.7 0c5.768-5.465 21.771-26.616-14.515-69.324a7 7 0 0 0 -10.672 0zm15.556 59.158c-5.348 5.069-15.091 5.069-20.44 0-6.609-6.26-6.939-20.791 10.22-43.456 17.159 22.665 16.83 37.196 10.22 43.456zm66 226.118c4.156-16.147 3.138-28.693-3.067-38.212-5.468-8.389-14.79-13.818-27.759-16.187-1.071-25.1-11.51-40.578-31.086-46.058a7 7 0 0 0 -8.355 4.06 70.684 70.684 0 0 1 -8.045 14.649v-59.7a55.919 55.919 0 0 0 -55.871-55.842h-.623v-44.931a7 7 0 0 0 -7-7h-32.523v-50.143c11.1-2.939 22.537-5.77 34.174-6.071a62.321 62.321 0 0 1 36.781 10.206l4.393 2.863a7.009 7.009 0 0 0 3.823 1.136 7.1 7.1 0 0 0 1.448-.151 7 7 0 0 0 4.421-3.034l13.238-20.353a7 7 0 0 0 -2.048-9.683l-4.385-2.858a98.537 98.537 0 0 0 -57.145-16.617c-16.128.261-30.979 3.909-47.332 8.286l-1.776.477a140.159 140.159 0 0 1 -17.6 3.938c-4.409.581-7.6.41-9.5-.525a6.45 6.45 0 0 1 -2.762-2.825l-2.63-4.5a7 7 0 0 0 -9.583-2.507l-20.951 12.279a7 7 0 0 0 -2.487 9.605l2.643 4.47c6.09 10.442 14.212 17.429 24.158 20.775a47.421 47.421 0 0 0 14.828 2.261v42.969h-32.484a7 7 0 0 0 -7 7v44.929h-.652a55.919 55.919 0 0 0 -55.872 55.844v278.385a31.174 31.174 0 0 0 31.152 31.125h168.007a31.174 31.174 0 0 0 31.153-31.125v-52.326h52.188c37.415 0 52.94-21.147 54.866-39.256 2.097-19.747-9.937-38.109-28.742-45.353zm-238.6-320.785 8.875-5.2a19.949 19.949 0 0 0 7.762 6.83c5.936 2.905 12.8 2.425 17.446 1.816a150.309 150.309 0 0 0 19.412-4.3l1.762-.471c15.994-4.284 29.385-7.578 43.939-7.814a84.647 84.647 0 0 1 47.8 13.4l-5.606 8.62a75.792 75.792 0 0 0 -43.309-11.529c-14.236.367-28 4.031-40.157 7.268l-2.237.6c-12.69 3.431-28.483 7.7-40.089 3.832-6.25-2.101-11.361-6.37-15.598-13.052zm39.982 27.307c3.5-.6 6.947-1.369 10.29-2.192v46.447h-10.29zm-39.486 58.259h89.29v37.927h-89.29zm145.784 372.154a17.154 17.154 0 0 1 -17.15 17.125h-168.007a17.154 17.154 0 0 1 -17.152-17.125v-278.385a41.9 41.9 0 0 1 41.867-41.838h118.574a41.9 41.9 0 0 1 41.868 41.838v72.467a46.658 46.658 0 0 1 -17.208 5.576 49.119 49.119 0 0 0 -8.247 1.835v-29.961a16.318 16.318 0 0 0 -16.3-16.3h-118.769a16.318 16.318 0 0 0 -16.3 16.3v200.8a16.318 16.318 0 0 0 16.3 16.3h118.77a16.318 16.318 0 0 0 16.3-16.3v-24.658h25.455zm-45.951-144.706a48.086 48.086 0 0 0 -29.632 23.012c-8.937 15.56-9.353 34.536-1.062 48.342 7.271 12.107 20.295 19.3 37.187 20.772v24.915a2.326 2.326 0 0 1 -2.3 2.3h-118.766a2.3 2.3 0 0 1 -2.3-2.3v-200.8a2.326 2.326 0 0 1 2.3-2.3h118.77a2.326 2.326 0 0 1 2.3 2.3v37.5a33.747 33.747 0 0 0 -10.058 13.986c-3.819 10.08-2.484 21.418 3.561 32.273zm153.08 51.643c-1.374 12.924-12.851 26.733-40.941 26.733h-96.575c-.076 0-.151 0-.225 0-16.342.522-28.119-4.395-34.028-14.235-5.72-9.523-5.249-22.931 1.2-34.158 6.395-11.135 17.078-17.489 29.365-17.489h.453.09a7 7 0 0 0 5.294-11.583c-8.342-9.639-11.323-19.934-8.18-28.244 2.892-7.645 10.774-13.04 21.06-14.43 21.235-2.789 37.205-14.679 47.55-35.38 8.217 4.008 15.753 12.938 15.375 36.49a7 7 0 0 0 6.294 7.078c11.819 1.2 19.778 4.822 23.657 10.773 4.533 6.955 4.357 18.093-.526 33.1a7 7 0 0 0 5.185 9.011c18.027 3.888 26.314 19.558 24.952 32.334z"/></svg>