<svg id="Layer_1" viewBox="0 0 512 512" xmlns="http://www.w3.org/2000/svg" data-name="Layer 1"><path d="m147.763 97.357h106.2v39h-106.2zm130.889 361.425a16.767 16.767 0 0 1 -16.758 16.758h-122.088a16.767 16.767 0 0 1 -16.758-16.758v-206.462a16.716 16.716 0 0 1 16.758-16.758h122.088a16.716 16.716 0 0 1 16.758 16.758v23.287a55.771 55.771 0 0 1 7.549-1.516c11.395-1.515 19.614-6.528 25.851-14.164v-58.927a50.4 50.4 0 0 0 -50.246-50.245h-121.912a50.4 50.4 0 0 0 -50.246 50.245v286.2a24.883 24.883 0 0 0 24.832 24.8h172.741a24.882 24.882 0 0 0 24.831-24.8v-46.6h-33.4zm-14.4-176.88v-29.582a2.391 2.391 0 0 0 -2.361-2.361h-122.085a2.389 2.389 0 0 0 -2.36 2.361v206.462a2.336 2.336 0 0 0 .7 1.661 2.287 2.287 0 0 0 1.661.7h122.087a2.287 2.287 0 0 0 1.661-.7 2.337 2.337 0 0 0 .7-1.661v-18.42c-21.247-1.749-40.628-11.774-48.439-33.429-6.062-16.787-2.944-36.052 6.587-50.916a56.918 56.918 0 0 1 25.385-21.858c-4.314-11.4-4.721-23.87 1.224-35.557a43.057 43.057 0 0 1 15.243-16.702zm-96.059-245.079c6.266 2.089 13.178 2.308 20.168 1.577v44.56h24.978v-49.86l2.535-.679c13.028-3.5 26.056-6.908 39.608-7.257a71.133 71.133 0 0 1 41.939 11.687l4.518 2.943 13.61-20.955-4.517-2.914a94.621 94.621 0 0 0 -54.705-15.911c-16.2.233-31.389 4.08-46.923 8.248-6.762 1.807-13.9 3.847-20.868 4.75-4.4.583-9.705.787-13.814-1.2a14.119 14.119 0 0 1 -5.917-5.77l-2.705-4.629-21.543 12.619 2.743 4.668c4.893 8.36 11.538 15.005 20.893 18.123zm153.214 20.926c-76.271 89.737 76.243 89.737 0 0zm69.423 293.489c10.288-31.506 2.623-51.179-29.873-54.472.379-23.578-6.383-41.007-26.784-46.719-10.23 24.6-26.289 35.731-46.078 38.3-27.367 3.7-40.016 29.99-17.72 55.725-50.595-.612-65.576 84.345 3.235 82.13h99.3c64.348-.002 61.025-65.696 17.92-74.964z" fill-rule="evenodd"/></svg>