<svg id="Icons" enable-background="new 0 0 100 100" height="512" viewBox="0 0 100 100" width="512" xmlns="http://www.w3.org/2000/svg"><path id="Sad" d="m50 98c-26.467 0-48-21.533-48-48s21.533-48 48-48 48 21.533 48 48-21.533 48-48 48zm0-90c-23.159 0-42 18.841-42 42s18.841 42 42 42 42-18.841 42-42-18.841-42-42-42zm22.342 62.684c1.482-.741 2.083-2.543 1.342-4.025-.28-.559-7.021-13.659-23.684-13.659s-23.404 13.1-23.684 13.658c-.738 1.477-.141 3.267 1.332 4.012 1.477.743 3.275.154 4.028-1.315.217-.423 5.454-10.355 18.324-10.355s18.107 9.932 18.316 10.342c.526 1.052 1.585 1.66 2.687 1.658.45 0 .908-.101 1.339-.316zm-7.342-26.684c-3.309 0-6-2.691-6-6s2.691-6 6-6 6 2.691 6 6-2.691 6-6 6zm-30 0c-3.309 0-6-2.691-6-6s2.691-6 6-6 6 2.691 6 6-2.691 6-6 6z"/></svg>